<svg xmlns="http://www.w3.org/2000/svg" viewBox="0 0 24 24" role="img" aria-label="GitHub">
  <circle cx="12" cy="12" r="12" fill="#181717"/>
  <path
    d="M12 3.4A8.6 8.6 0 0 0 9.3 20c.4.1.5-.2.5-.4v-1.5c-2.2.5-2.7-.9-2.7-.9-.4-1-.9-1.3-.9-1.3-.8-.5.1-.5.1-.5.8.1 1.3.9 1.3.9.8 1.3 2 1 2.5.7.1-.5.3-.8.5-1-1.8-.2-3.7-.9-3.7-4 0-.9.3-1.6.8-2.2-.1-.2-.4-1 .1-2.2 0 0 .7-.2 2.3.8a7.8 7.8 0 0 1 4.2 0c1.6-1 2.3-.8 2.3-.8.5 1.2.2 2 .1 2.2.5.6.8 1.3.8 2.2 0 3.1-1.9 3.8-3.7 4 .3.3.5.8.5 1.5v2.2c0 .2.1.5.5.4A8.6 8.6 0 0 0 12 3.4Z"
    fill="#FFFFFF"
  />
</svg>
